<svg width="43" height="48" viewBox="0 0 43 48" fill="none" xmlns="http://www.w3.org/2000/svg">
<path d="M21.5 47.9998C20.7006 48.0066 19.915 47.7921 19.2302 47.3799L10.6725 42.3777C7.46876 40.587 4.79481 37.9827 2.92085 34.8282C1.04688 31.6736 0.0393239 28.0805 0 24.4121V10.7441C0.000379124 9.82309 0.282963 8.92426 0.809743 8.16853C1.33652 7.4128 2.08223 6.83642 2.94656 6.51694L19.9492 0.274774C20.9506 -0.0915913 22.0494 -0.0915913 23.0508 0.274774L40.0534 6.51694C40.9178 6.83642 41.6635 7.4128 42.1903 8.16853C42.717 8.92426 42.9996 9.82309 43 10.7441V24.4121C42.9607 28.0805 41.9531 31.6736 40.0792 34.8282C38.2052 37.9827 35.5312 40.587 32.3275 42.3777L23.7698 47.3799C23.085 47.7921 22.2994 48.0066 21.5 47.9998ZM21.5 3.52972C21.3881 3.50936 21.2735 3.50936 21.1616 3.52972L4.15902 9.80006C3.9675 9.87095 3.80316 10.0003 3.68929 10.1697C3.57542 10.3392 3.5178 10.5401 3.52459 10.7441V24.4121C3.56547 27.4645 4.4123 30.452 5.97939 33.0723C7.54648 35.6926 9.77823 37.8527 12.4489 39.3341L21.0066 44.3504C21.1579 44.433 21.3276 44.4763 21.5 44.4763C21.6724 44.4763 21.8421 44.433 21.9934 44.3504L30.5511 39.3341C33.2218 37.8527 35.4535 35.6926 37.0206 33.0723C38.5877 30.452 39.4345 27.4645 39.4754 24.4121V10.7441C39.4763 10.5449 39.4159 10.3502 39.3024 10.1864C39.189 10.0226 39.0279 9.89754 38.841 9.82824L21.8384 3.58608C21.73 3.54681 21.6153 3.52771 21.5 3.52972Z" fill="#006038"/>
<path d="M19.8904 30.9989C19.4692 30.9961 19.0614 30.8485 18.7342 30.5805L12.6393 25.3867C12.2758 25.0787 12.0484 24.6374 12.0069 24.1599C11.9654 23.6823 12.1133 23.2077 12.418 22.8404C12.7228 22.473 13.1594 22.2431 13.6319 22.2012C14.1043 22.1592 14.5739 22.3087 14.9373 22.6167L19.7191 26.6852L27.8837 17.5961C28.2017 17.2403 28.6466 17.0267 29.1204 17.0023C29.5942 16.978 30.0581 17.1449 30.4102 17.4663C30.7623 17.7877 30.9736 18.2373 30.9977 18.7162C31.0218 19.1951 30.8567 19.664 30.5387 20.0199L21.2892 30.4074C21.1121 30.6022 20.8954 30.7559 20.6539 30.858C20.4124 30.9601 20.152 31.0082 19.8904 30.9989Z" fill="#006038"/>
</svg>
