<svg width="52" height="52" viewBox="0 0 52 52" fill="none" xmlns="http://www.w3.org/2000/svg">
<path d="M27.1432 13.4287C27.1432 13.4287 37.726 14.8687 39.7146 16.8573C41.7032 18.8459 44.286 29.2459 45.4289 32.8573C46.5614 35.7293 48.101 38.4235 50.0003 40.8573C48.8573 43.5542 46.9493 45.8573 44.5121 47.4821C42.0749 49.1069 39.2152 49.9823 36.286 50.0001C32.4689 43.4401 27.5318 43.3716 24.8575 39.7144C23.2563 37.7997 22.4396 35.3497 22.5718 32.8573C22.0494 29.9654 20.877 27.23 19.1432 24.8573C17.246 22.0916 15.7603 18.0001 18.0003 15.7144C20.2403 13.4287 24.9946 18.9601 26.0003 21.4287C27.006 23.8973 29.2003 28.2859 31.7146 29.4287C33.1546 28.4687 33.3832 26.4344 34.0003 26.0001C33.5448 24.8835 33.163 23.7382 32.8575 22.5716L27.1432 20.2859" stroke="#006038" stroke-width="3" stroke-linecap="round" stroke-linejoin="round"/>
<path d="M27.1429 23.92V5.42857C27.1429 4.51926 26.7816 3.64719 26.1387 3.00421C25.4957 2.36122 24.6236 2 23.7143 2H5.42857C4.51926 2 3.64719 2.36122 3.00421 3.00421C2.36122 3.64719 2 4.51926 2 5.42857V37.4286C2 38.3379 2.36122 39.21 3.00421 39.8529C3.64719 40.4959 4.51926 40.8571 5.42857 40.8571H23.7143C24.3085 40.856 24.8918 40.6983 25.4057 40.4" stroke="#006038" stroke-width="3" stroke-linecap="round" stroke-linejoin="round"/>
<path d="M14.5716 34.0001C15.2028 34.0001 15.7144 33.4884 15.7144 32.8572C15.7144 32.226 15.2028 31.7144 14.5716 31.7144C13.9404 31.7144 13.4287 32.226 13.4287 32.8572C13.4287 33.4884 13.9404 34.0001 14.5716 34.0001Z" stroke="#006038" stroke-width="3" stroke-linecap="round" stroke-linejoin="round"/>
<path d="M2 34C3.81863 34 5.56277 34.7224 6.84873 36.0084C8.1347 37.2944 8.85714 39.0385 8.85714 40.8571M22.8229 35.5771C22.0363 36.2152 21.4008 37.0196 20.9621 37.9326C20.5234 38.8455 20.2924 39.8443 20.2857 40.8571" stroke="#006038" stroke-width="3" stroke-linecap="round" stroke-linejoin="round"/>
<path d="M14.5716 11.1426C15.2028 11.1426 15.7144 10.631 15.7144 9.99979C15.7144 9.36861 15.2028 8.85693 14.5716 8.85693C13.9404 8.85693 13.4287 9.36861 13.4287 9.99979C13.4287 10.631 13.9404 11.1426 14.5716 11.1426Z" stroke="#006038" stroke-width="3" stroke-linecap="round" stroke-linejoin="round"/>
<path d="M27.1429 8.85714C25.3242 8.85714 23.5801 8.1347 22.2941 6.84873C21.0082 5.56277 20.2857 3.81863 20.2857 2M8.85714 2C8.85714 3.81863 8.1347 5.56277 6.84873 6.84873C5.56277 8.1347 3.81863 8.85714 2 8.85714M17.7257 16.1029C16.6953 15.8387 15.6352 15.7081 14.5714 15.7143C10.16 15.7143 6.57143 17.7486 6.57143 21.4286C6.57143 25.1086 10.16 27.1429 14.5714 27.1429C16.3777 27.2132 18.1718 26.8198 19.7829 26" stroke="#006038" stroke-width="3" stroke-linecap="round" stroke-linejoin="round"/>
</svg>
