<svg width="68" height="48" viewBox="0 0 68 48" fill="none" xmlns="http://www.w3.org/2000/svg">
<path d="M4.86249 0V4.80548H12.1396V0H4.86249ZM14.559 0V4.80548H43.3924L39.1419 38.399H23.8239C22.8106 35.6209 20.1364 33.5941 16.9974 33.5941C13.8584 33.5941 11.1842 35.6209 10.1709 38.399H0V43.1995H10.1662C11.1755 45.9802 13.8531 48 16.9974 48C20.1417 48 22.8193 45.9802 23.8286 43.1995C29.8012 43.1995 35.7737 43.1995 41.7463 43.1995C42.756 45.9794 45.429 48 48.5728 48C51.717 48 54.3947 45.9802 55.404 43.1995H60.7124C61.7998 43.2068 62.759 42.4971 63.0606 41.4648L67.9041 24.668C68.0438 24.1918 68.0306 23.6834 67.8665 23.2146L62.8095 8.80867C62.4699 7.84271 61.5483 7.19577 60.5135 7.19632H47.9849L48.5541 2.69592C48.7331 1.26813 47.6096 0.00607802 46.1537 0H14.559ZM0 9.60598V14.4065H7.28188V9.60598H0ZM9.72024 9.60598V14.4065H24.2793V9.60598H9.72024ZM47.3773 11.9968H58.7911L63.0227 24.0634L58.8813 38.399H55.3992C54.386 35.6209 51.7118 33.5941 48.5728 33.5941C47.0636 33.5941 45.6558 34.0628 44.4883 34.8548L47.3773 11.9968ZM4.86249 19.2064V24.0119H16.9974V19.2064H4.86249ZM19.4215 19.2064V24.0119H26.7176V19.2064H19.4215ZM0 28.7936V33.5941H7.28188V28.7936H0ZM16.9974 38.399C18.3676 38.399 19.4215 39.4547 19.4215 40.8087C19.4215 42.1627 18.3676 43.1995 16.9974 43.1995C15.6272 43.1995 14.559 42.1627 14.559 40.8087C14.559 39.4547 15.6272 38.399 16.9974 38.399ZM48.5728 38.399C49.943 38.399 50.9921 39.4547 50.9921 40.8087C50.9921 42.1627 49.943 43.1995 48.5728 43.1995C47.2026 43.1995 46.1534 42.1627 46.1534 40.8087C46.1534 39.4547 47.2026 38.399 48.5728 38.399Z" fill="#006038"/>
</svg>
