<svg width="54" height="48" viewBox="0 0 54 48" fill="none" xmlns="http://www.w3.org/2000/svg">
<path d="M50.6754 9.59574C49.9029 11.6462 49.1361 13.6909 48.3636 15.7413C47.1344 19.0082 45.9052 22.2692 44.6816 25.5361C44.3996 26.2833 44.1177 27.0363 43.8358 27.7835C44.3771 27.3607 44.924 26.932 45.4653 26.5092C44.5914 26.5092 43.7117 26.5092 42.8378 26.5092C40.7458 26.5092 38.6483 26.5092 36.5564 26.5092C34.0246 26.5092 31.4929 26.5092 28.9612 26.5092C26.7734 26.5092 24.5856 26.5092 22.3978 26.5092C21.3321 26.5092 20.2665 26.4802 19.2008 26.5092C19.1838 26.5092 19.1726 26.5092 19.1556 26.5092C19.697 26.932 20.2439 27.3607 20.7852 27.7835C20.5145 26.9378 20.2439 26.0921 19.9732 25.2407C19.3192 23.2076 18.6707 21.1745 18.0167 19.1414C17.2329 16.6913 16.4491 14.2411 15.6597 11.791C14.9774 9.66525 14.2952 7.53948 13.6185 5.41372C13.2859 4.38269 12.9757 3.34587 12.6262 2.32064C12.6205 2.30326 12.6149 2.29168 12.6092 2.2743C12.3724 1.54447 11.7465 1 10.9797 1C8.27315 1 5.56663 1 2.8601 1C2.47104 1 2.08197 1 1.69291 1C0.807649 1 -0.0381408 1.79933 0.00132939 2.73768C0.0407996 3.68182 0.745624 4.47537 1.69291 4.47537C4.39944 4.47537 7.10596 4.47537 9.81249 4.47537C10.2016 4.47537 10.5906 4.47537 10.9797 4.47537C10.4384 4.05253 9.89143 3.6239 9.35012 3.20107C9.62078 4.04674 9.89143 4.89241 10.1621 5.74388C10.8162 7.77696 11.4646 9.81005 12.1187 11.8431C12.9024 14.2933 13.6862 16.7434 14.4756 19.1935C15.1579 21.3193 15.8402 23.4451 16.5168 25.5708C16.8495 26.6019 17.1596 27.6387 17.5092 28.6639C17.5148 28.6813 17.5205 28.6929 17.5261 28.7103C17.7629 29.4401 18.3888 29.9846 19.1556 29.9846C20.0296 29.9846 20.9093 29.9846 21.7832 29.9846C23.8752 29.9846 25.9727 29.9846 28.0646 29.9846C30.5964 29.9846 33.1281 29.9846 35.6598 29.9846C37.8476 29.9846 40.0354 29.9846 42.2231 29.9846C43.2888 29.9846 44.3545 30.0193 45.4202 29.9846C45.4371 29.9846 45.4484 29.9846 45.4653 29.9846C46.2717 29.9846 46.8242 29.4343 47.0949 28.7103C47.8674 26.6598 48.6342 24.6151 49.4067 22.5646C50.6359 19.2978 51.8652 16.0367 53.0887 12.7699C53.3707 12.0227 53.6526 11.2697 53.9345 10.5225C54.0811 10.1286 53.9627 9.53782 53.7654 9.18449C53.5624 8.82537 53.1564 8.47783 52.7561 8.38515C52.3219 8.28668 51.837 8.30406 51.4535 8.55892C51.0588 8.81378 50.8389 9.14973 50.6754 9.59574Z" fill="#006038"/>
<path d="M17.3769 27.3069C16.4587 28.982 15.5348 30.6513 14.6165 32.3264C14.4862 32.5698 14.3501 32.8074 14.2198 33.0509C13.5906 34.1927 14.3841 35.6649 15.6878 35.6649C16.6684 35.6649 17.649 35.6649 18.6296 35.6649C20.9875 35.6649 23.3398 35.6649 25.6978 35.6649C28.5488 35.6649 31.3999 35.6649 34.251 35.6649C36.7166 35.6649 39.1823 35.6649 41.6479 35.6649C42.8439 35.6649 44.0456 35.6881 45.2472 35.6649C45.2642 35.6649 45.2812 35.6649 45.2982 35.6649C46.1881 35.6649 47.0383 34.8651 46.9987 33.9261C46.959 32.9813 46.2505 32.1872 45.2982 32.1872C44.3176 32.1872 43.337 32.1872 42.3565 32.1872C39.9985 32.1872 37.6462 32.1872 35.2883 32.1872C32.4372 32.1872 29.5861 32.1872 26.735 32.1872C24.2694 32.1872 21.8038 32.1872 19.3381 32.1872C18.1421 32.1872 16.9348 32.1525 15.7388 32.1872C15.7218 32.1872 15.7048 32.1872 15.6878 32.1872C16.1753 33.0567 16.6684 33.9319 17.1559 34.8013C18.0741 33.1262 18.998 31.4569 19.9163 29.7819C20.0466 29.5384 20.1827 29.3008 20.313 29.0573C20.7495 28.2633 20.5228 27.1214 19.7009 26.6809C18.896 26.252 17.8417 26.4607 17.3769 27.3069ZM34.4607 42.3073C34.4721 43.4317 34.7895 44.5967 35.4356 45.5183C36.1498 46.5326 37.0624 47.2397 38.2074 47.6802C40.2479 48.4627 42.8156 47.7672 44.2043 46.0515C45.0148 45.0488 45.4683 43.9302 45.5703 42.6318C45.661 41.5248 45.3549 40.3308 44.7938 39.3802C44.2439 38.4586 43.4221 37.6472 42.4528 37.1951C41.2908 36.6502 40.0835 36.4995 38.8309 36.7488C36.2915 37.2588 34.4891 39.7164 34.4607 42.3073C34.4494 43.2172 35.2486 44.0867 36.1612 44.0461C37.0907 44.0055 37.8503 43.281 37.8616 42.3073C37.8616 42.116 37.8786 41.9305 37.9013 41.745C37.8786 41.9015 37.8616 42.0522 37.8389 42.2087C37.89 41.8725 37.975 41.548 38.1053 41.235C38.0487 41.3741 37.992 41.5132 37.9353 41.6523C38.0317 41.432 38.1393 41.2176 38.2697 41.0147C38.2811 40.9973 38.3661 40.8582 38.3774 40.8582C38.3831 40.8582 38.094 41.2118 38.247 41.0321C38.3264 40.9394 38.4058 40.8408 38.4964 40.7539C38.5758 40.6728 38.6608 40.5974 38.7402 40.5221C38.8479 40.4235 39.0122 40.3771 38.5985 40.6322C38.6381 40.609 38.6778 40.5742 38.7175 40.5452C38.9272 40.4003 39.1426 40.2844 39.375 40.1801C39.239 40.238 39.1029 40.296 38.9669 40.354C39.273 40.2265 39.5904 40.1337 39.9191 40.0815C39.7661 40.1047 39.6187 40.1221 39.4657 40.1453C39.8341 40.0931 40.1969 40.0931 40.5653 40.1453C40.4123 40.1221 40.2649 40.1047 40.1119 40.0815C40.4406 40.1337 40.758 40.2207 41.0641 40.354C40.9281 40.296 40.792 40.238 40.656 40.1801C40.8714 40.2786 41.0811 40.3887 41.2795 40.5221C41.2965 40.5336 41.4325 40.6206 41.4325 40.6322C41.4325 40.638 41.0868 40.3424 41.2625 40.4989C41.3532 40.58 41.4495 40.6612 41.5346 40.7539C41.6139 40.835 41.6876 40.922 41.7613 41.0031C41.8577 41.1133 41.903 41.2813 41.6536 40.8582C41.6763 40.8988 41.7103 40.9394 41.7386 40.9799C41.8803 41.1944 41.9937 41.4147 42.0957 41.6523C42.039 41.5132 41.9824 41.3741 41.9257 41.235C42.0504 41.548 42.1411 41.8725 42.1921 42.2087C42.1694 42.0522 42.1524 41.9015 42.1297 41.745C42.1807 42.1218 42.1807 42.4927 42.1297 42.8695C42.1524 42.713 42.1694 42.5623 42.1921 42.4058C42.1411 42.742 42.056 43.0665 41.9257 43.3795C41.9824 43.2404 42.039 43.1013 42.0957 42.9622C41.9994 43.1825 41.8917 43.3969 41.7613 43.5998C41.75 43.6172 41.6649 43.7563 41.6536 43.7563C41.6479 43.7563 41.937 43.4027 41.784 43.5824C41.7046 43.6751 41.6253 43.7737 41.5346 43.8606C41.4552 43.9418 41.3702 44.0171 41.2908 44.0925C41.1831 44.191 41.0188 44.2374 41.4325 43.9823C41.3929 44.0055 41.3532 44.0403 41.3135 44.0693C41.1038 44.2142 40.8884 44.3301 40.656 44.4344C40.792 44.3765 40.9281 44.3185 41.0641 44.2605C40.758 44.3881 40.4406 44.4808 40.1119 44.533C40.2649 44.5098 40.4123 44.4924 40.5653 44.4692C40.1969 44.5214 39.8341 44.5214 39.4657 44.4692C39.6187 44.4924 39.7661 44.5098 39.9191 44.533C39.5904 44.4808 39.273 44.3939 38.9669 44.2605C39.1029 44.3185 39.239 44.3765 39.375 44.4344C39.1596 44.3359 38.9499 44.2258 38.7515 44.0925C38.7345 44.0809 38.5985 43.9939 38.5985 43.9823C38.5985 43.9765 38.9442 44.2721 38.7685 44.1156C38.6778 44.0345 38.5815 43.9534 38.4964 43.8606C38.4171 43.7795 38.3434 43.6925 38.2697 43.6114C38.1734 43.5013 38.128 43.3332 38.3774 43.7563C38.3547 43.7157 38.3207 43.6751 38.2924 43.6346C38.1507 43.4201 38.0373 43.1999 37.9353 42.9622C37.992 43.1013 38.0487 43.2404 38.1053 43.3795C37.9806 43.0665 37.89 42.742 37.8389 42.4058C37.8616 42.5623 37.8786 42.713 37.9013 42.8695C37.8786 42.684 37.8616 42.4985 37.8616 42.3073C37.8503 41.3973 37.0851 40.5278 36.1612 40.5684C35.2486 40.609 34.4494 41.3335 34.4607 42.3073ZM14.9226 42.3073C14.934 43.4317 15.2514 44.5967 15.8975 45.5183C16.6117 46.5326 17.5243 47.2397 18.6693 47.6802C20.7098 48.4627 23.2775 47.7672 24.6662 46.0515C25.4767 45.0488 25.9302 43.9302 26.0322 42.6318C26.1229 41.5248 25.8168 40.3308 25.2557 39.3802C24.7058 38.4586 23.884 37.6472 22.9147 37.1951C21.7527 36.6502 20.5454 36.4995 19.2928 36.7488C16.7478 37.2588 14.9453 39.7164 14.9226 42.3073C14.9113 43.2172 15.7105 44.0867 16.6231 44.0461C17.5526 44.0055 18.3122 43.281 18.3235 42.3073C18.3235 42.116 18.3405 41.9305 18.3632 41.745C18.3405 41.9015 18.3235 42.0522 18.3008 42.2087C18.3519 41.8725 18.4369 41.548 18.5672 41.235C18.5106 41.3741 18.4539 41.5132 18.3972 41.6523C18.4936 41.432 18.6012 41.2176 18.7316 41.0147C18.743 40.9973 18.828 40.8582 18.8393 40.8582C18.845 40.8582 18.5559 41.2118 18.7089 41.0321C18.7883 40.9394 18.8677 40.8408 18.9583 40.7539C19.0377 40.6728 19.1227 40.5974 19.2021 40.5221C19.3098 40.4235 19.4741 40.3771 19.0604 40.6322C19.1 40.609 19.1397 40.5742 19.1794 40.5452C19.3891 40.4003 19.6045 40.2844 19.8369 40.1801C19.7009 40.238 19.5648 40.296 19.4288 40.354C19.7349 40.2265 20.0523 40.1337 20.381 40.0815C20.228 40.1047 20.0806 40.1221 19.9276 40.1453C20.296 40.0931 20.6588 40.0931 21.0272 40.1453C20.8742 40.1221 20.7268 40.1047 20.5738 40.0815C20.9025 40.1337 21.2199 40.2207 21.526 40.354C21.39 40.296 21.2539 40.238 21.1179 40.1801C21.3333 40.2786 21.543 40.3887 21.7414 40.5221C21.7584 40.5336 21.8944 40.6206 21.8944 40.6322C21.8944 40.638 21.5487 40.3424 21.7244 40.4989C21.8151 40.58 21.9114 40.6612 21.9965 40.7539C22.0758 40.835 22.1495 40.922 22.2232 41.0031C22.3196 41.1133 22.3649 41.2813 22.1155 40.8582C22.1382 40.8988 22.1722 40.9394 22.2005 40.9799C22.3422 41.1944 22.4556 41.4147 22.5576 41.6523C22.5009 41.5132 22.4443 41.3741 22.3876 41.235C22.5123 41.548 22.603 41.8725 22.654 42.2087C22.6313 42.0522 22.6143 41.9015 22.5916 41.745C22.6426 42.1218 22.6426 42.4927 22.5916 42.8695C22.6143 42.713 22.6313 42.5623 22.654 42.4058C22.603 42.742 22.5179 43.0665 22.3876 43.3795C22.4443 43.2404 22.5009 43.1013 22.5576 42.9622C22.4613 43.1825 22.3536 43.3969 22.2232 43.5998C22.2119 43.6172 22.1268 43.7563 22.1155 43.7563C22.1098 43.7563 22.3989 43.4027 22.2459 43.5824C22.1665 43.6751 22.0872 43.7737 21.9965 43.8606C21.9171 43.9418 21.8321 44.0171 21.7527 44.0925C21.645 44.191 21.4807 44.2374 21.8944 43.9823C21.8548 44.0055 21.8151 44.0403 21.7754 44.0693C21.5657 44.2142 21.3503 44.3301 21.1179 44.4344C21.2539 44.3765 21.39 44.3185 21.526 44.2605C21.2199 44.3881 20.9025 44.4808 20.5738 44.533C20.7268 44.5098 20.8742 44.4924 21.0272 44.4692C20.6588 44.5214 20.296 44.5214 19.9276 44.4692C20.0806 44.4924 20.228 44.5098 20.381 44.533C20.0523 44.4808 19.7349 44.3939 19.4288 44.2605C19.5648 44.3185 19.7009 44.3765 19.8369 44.4344C19.6215 44.3359 19.4118 44.2258 19.2134 44.0925C19.1964 44.0809 19.0604 43.9939 19.0604 43.9823C19.0604 43.9765 19.4061 44.2721 19.2304 44.1156C19.1397 44.0345 19.0434 43.9534 18.9583 43.8606C18.879 43.7795 18.8053 43.6925 18.7316 43.6114C18.6353 43.5013 18.5899 43.3332 18.8393 43.7563C18.8166 43.7157 18.7826 43.6751 18.7543 43.6346C18.6126 43.4201 18.4992 43.1999 18.3972 42.9622C18.4539 43.1013 18.5106 43.2404 18.5672 43.3795C18.4425 43.0665 18.3519 42.742 18.3008 42.4058C18.3235 42.5623 18.3405 42.713 18.3632 42.8695C18.3405 42.684 18.3235 42.4985 18.3235 42.3073C18.3122 41.3973 17.547 40.5278 16.6231 40.5684C15.7048 40.609 14.9113 41.3335 14.9226 42.3073ZM26.4346 9.67516C28.3561 7.71028 30.272 5.75119 32.1935 3.78631C32.4655 3.5081 32.7319 3.23568 33.004 2.95747C32.2048 2.95747 31.3999 2.95747 30.6007 2.95747C32.5222 4.92235 34.4381 6.88143 36.3596 8.84631C36.6316 9.12453 36.898 9.39694 37.1701 9.67516C37.7993 10.3185 38.9556 10.3649 39.5734 9.67516C40.1969 8.97962 40.2479 7.90155 39.5734 7.21761C37.6519 5.25273 35.7361 3.29364 33.8146 1.32876C33.5425 1.05055 33.2761 0.778128 33.004 0.499914C32.3522 -0.166638 31.2526 -0.166638 30.6007 0.499914C28.6792 2.4648 26.7634 4.42388 24.8419 6.38876C24.5698 6.66698 24.3034 6.93939 24.0313 7.21761C23.4022 7.86097 23.3568 9.04338 24.0313 9.67516C24.7058 10.3127 25.7601 10.3591 26.4346 9.67516Z" fill="#006038"/>
<path d="M30 1.8166C30 3.66202 30 5.50745 30 7.35287C30 10.2935 30 13.228 30 16.1686C30 16.8402 30 17.5118 30 18.1834C30 19.1333 30.92 20.0409 32 19.9986C33.0867 19.9562 34 19.1999 34 18.1834C34 16.338 34 14.4926 34 12.6471C34 9.70655 34 6.77202 34 3.83144C34 3.15983 34 2.48821 34 1.8166C34 0.866659 33.08 -0.0409275 32 0.00142652C30.9133 0.0437805 30 0.800102 30 1.8166Z" fill="#006038"/>
</svg>
